<mxfile host="app.diagrams.net" modified="2023-08-13T05:59:24.110Z" agent="Mozilla/5.0 (Macintosh; Intel Mac OS X 10_15_7) AppleWebKit/537.36 (KHTML, like Gecko) Chrome/114.0.0.0 Safari/537.36" etag="RaIPTWcwkPUO8kwBdKkI" version="21.5.0" type="github">
  <diagram name="第 1 页" id="AHuETC-duT9YvFgf8wdt">
    <mxGraphModel dx="529" dy="303" grid="0" gridSize="10" guides="1" tooltips="1" connect="1" arrows="1" fold="1" page="0" pageScale="1" pageWidth="827" pageHeight="1169" math="0" shadow="0">
      <root>
        <mxCell id="0" />
        <mxCell id="1" parent="0" />
        <mxCell id="kGAsExpO0QplnWILn17d-1" value="Text" style="text;html=1;strokeColor=none;fillColor=none;align=center;verticalAlign=middle;whiteSpace=wrap;rounded=0;" vertex="1" parent="1">
          <mxGeometry x="82" y="214" width="23" height="13" as="geometry" />
        </mxCell>
        <mxCell id="kGAsExpO0QplnWILn17d-2" value="" style="rounded=1;whiteSpace=wrap;html=1;" vertex="1" parent="1">
          <mxGeometry x="76" y="251" width="120" height="60" as="geometry" />
        </mxCell>
      </root>
    </mxGraphModel>
  </diagram>
</mxfile>
